<svg xmlns="http://www.w3.org/2000/svg" viewBox="0 0 1280 720" width="100%" height="100%">
  <defs>
    <linearGradient id="bgGradC1" x1="0%" y1="0%" x2="0%" y2="100%">
      <stop offset="0%" stop-color="#f8fafc"/>
      <stop offset="100%" stop-color="#f1f5f9"/>
    </linearGradient>
    <linearGradient id="logoGradC1" x1="0%" y1="0%" x2="100%" y2="100%">
      <stop offset="0%" stop-color="#0066cc"/>
      <stop offset="100%" stop-color="#0284c7"/>
    </linearGradient>
    <filter id="cardShadowC1" x="-2%" y="-2%" width="104%" height="104%" filterUnits="userSpaceOnUse">
      <feDropShadow dx="0" dy="2" stdDeviation="4" flood-color="#0f172a" flood-opacity="0.05"/>
    </filter>
  </defs>

  <rect width="1280" height="720" fill="url(#bgGradC1)"/>

  <!-- Top App Navbar -->
  <rect x="0" y="0" width="1280" height="60" fill="#ffffff" stroke="#e2e8f0" stroke-width="1"/>
  <g transform="translate(24, 12)">
    <circle cx="18" cy="18" r="18" fill="url(#logoGradC1)"/>
    <text x="18" y="23" font-family="Poppins, sans-serif" font-size="13" font-weight="800" fill="#ffffff" text-anchor="middle">Ai</text>
    <text x="44" y="23" font-family="Poppins, sans-serif" font-size="18" font-weight="700" fill="#0f172a">AiBizzApp</text>
    <text x="142" y="23" font-family="Poppins, sans-serif" font-size="16" font-weight="500" fill="#334155">CRM</text>
  </g>

  <!-- Search Bar -->
  <g transform="translate(680, 12)">
    <rect x="0" y="0" width="340" height="36" rx="8" fill="#f8fafc" stroke="#cbd5e1" stroke-width="1"/>
    <circle cx="20" cy="18" r="6" stroke="#94a3b8" stroke-width="1.5" fill="none"/>
    <line x1="24" y1="22" x2="30" y2="28" stroke="#94a3b8" stroke-width="1.5"/>
    <text x="38" y="23" font-family="Poppins, sans-serif" font-size="12" fill="#94a3b8">Search deals, leads or contacts (Ctrl + K)</text>
  </g>

  <!-- Top Right Controls -->
  <g transform="translate(1060, 14)">
    <circle cx="40" cy="16" r="14" fill="#f8fafc" stroke="#e2e8f0"/>
    <path d="M37 12 C37 10 43 10 43 12 L45 18 L35 18 Z" fill="#64748b"/>
    <circle cx="44" cy="9" r="3.5" fill="#ef4444"/>
    <circle cx="80" cy="16" r="14" fill="#f8fafc" stroke="#e2e8f0"/>
    <circle cx="80" cy="16" r="4" stroke="#64748b" stroke-width="2" fill="none"/>
    <circle cx="120" cy="16" r="15" fill="#e2e8f0"/>
    <text x="120" y="21" font-family="Poppins, sans-serif" font-size="12" font-weight="600" fill="#475569" text-anchor="middle">NP</text>
  </g>

  <!-- Secondary Navigation Sub-bar -->
  <rect x="0" y="60" width="1280" height="42" fill="#ffffff" stroke="#e2e8f0" stroke-width="1"/>
  <g transform="translate(32, 86)">
    <text x="0" y="0" font-family="Poppins, sans-serif" font-size="13" font-weight="700" fill="#0066cc">Pipeline (Kanban)</text>
    <line x1="-2" y1="14" x2="114" y2="14" stroke="#0066cc" stroke-width="2"/>
    <text x="140" y="0" font-family="Poppins, sans-serif" font-size="13" font-weight="500" fill="#64748b">Leads</text>
    <text x="210" y="0" font-family="Poppins, sans-serif" font-size="13" font-weight="500" fill="#64748b">Contacts</text>
    <text x="296" y="0" font-family="Poppins, sans-serif" font-size="13" font-weight="500" fill="#64748b">Organizations</text>
    <text x="416" y="0" font-family="Poppins, sans-serif" font-size="13" font-weight="500" fill="#64748b">Omnichannel</text>
  </g>

  <!-- Breadcrumb & Pipeline Controls -->
  <g transform="translate(32, 122)">
    <text x="0" y="16" font-family="Poppins, sans-serif" font-size="12" fill="#64748b">CRM &gt; Deals &gt; <tspan fill="#0066cc">Enterprise Sales Pipeline</tspan></text>
    <text x="0" y="44" font-family="Poppins, sans-serif" font-size="20" font-weight="700" fill="#0f172a">Deal Flow &amp; Pipeline Stages</text>
    <rect x="290" y="26" width="136" height="24" rx="12" fill="#eff6ff" stroke="#bfdbfe"/>
    <text x="302" y="42" font-family="Poppins, sans-serif" font-size="11" font-weight="600" fill="#0066cc">• Total: $648,500 (24 Deals)</text>

    <rect x="1080" y="20" width="136" height="32" rx="6" fill="#0066cc"/>
    <text x="1098" y="41" font-family="Poppins, sans-serif" font-size="12" font-weight="600" fill="#ffffff">+ Add New Deal</text>
  </g>

  <!-- Kanban Columns Container -->
  <g transform="translate(32, 180)">
    
    <!-- Column 1: Qualification (4 Deals) -->
    <g transform="translate(0, 0)">
      <rect x="0" y="0" width="288" height="510" rx="10" fill="#f8fafc" stroke="#e2e8f0"/>
      <!-- Col Header -->
      <rect x="14" y="12" width="260" height="32" rx="6" fill="#ffffff" stroke="#e2e8f0"/>
      <circle cx="28" cy="28" r="4" fill="#3b82f6"/>
      <text x="40" y="32" font-family="Poppins, sans-serif" font-size="12" font-weight="700" fill="#0f172a">Qualification</text>
      <rect x="236" y="18" width="26" height="20" rx="10" fill="#eff6ff"/>
      <text x="249" y="32" font-family="Poppins, sans-serif" font-size="11" font-weight="700" fill="#0066cc" text-anchor="middle">4</text>

      <!-- Deal Card 1 -->
      <g transform="translate(14, 56)">
        <rect x="0" y="0" width="260" height="136" rx="8" fill="#ffffff" stroke="#e2e8f0" filter="url(#cardShadowC1)"/>
        <text x="14" y="22" font-family="Poppins, sans-serif" font-size="13" font-weight="700" fill="#0f172a">Cloud ERP Migration</text>
        <text x="14" y="40" font-family="Poppins, sans-serif" font-size="11" fill="#64748b">Vanguard Logistics Ltd.</text>
        <text x="14" y="70" font-family="Poppins, sans-serif" font-size="16" font-weight="800" fill="#0066cc">$48,000</text>
        <rect x="14" y="86" width="94" height="20" rx="10" fill="#f1f5f9"/>
        <text x="24" y="100" font-family="Poppins, sans-serif" font-size="10" font-weight="600" fill="#475569">Lead Score: 85</text>
        <circle cx="236" cy="116" r="10" fill="#e0f2fe"/>
        <text x="236" y="120" font-family="Poppins, sans-serif" font-size="9" font-weight="700" fill="#0369a1" text-anchor="middle">JD</text>
      </g>

      <!-- Deal Card 2 -->
      <g transform="translate(14, 204)">
        <rect x="0" y="0" width="260" height="136" rx="8" fill="#ffffff" stroke="#e2e8f0" filter="url(#cardShadowC1)"/>
        <text x="14" y="22" font-family="Poppins, sans-serif" font-size="13" font-weight="700" fill="#0f172a">Supply Chain Suite</text>
        <text x="14" y="40" font-family="Poppins, sans-serif" font-size="11" fill="#64748b">Apex Industries Global</text>
        <text x="14" y="70" font-family="Poppins, sans-serif" font-size="16" font-weight="800" fill="#0066cc">$32,500</text>
        <rect x="14" y="86" width="102" height="20" rx="10" fill="#fef2f2"/>
        <text x="24" y="100" font-family="Poppins, sans-serif" font-size="10" font-weight="600" fill="#ef4444">Call Tomorrow</text>
        <circle cx="236" cy="116" r="10" fill="#fef3c7"/>
        <text x="236" y="120" font-family="Poppins, sans-serif" font-size="9" font-weight="700" fill="#b45309" text-anchor="middle">SK</text>
      </g>
    </g>

    <!-- Column 2: Proposal Sent (5 Deals) -->
    <g transform="translate(308, 0)">
      <rect x="0" y="0" width="288" height="510" rx="10" fill="#f8fafc" stroke="#e2e8f0"/>
      <rect x="14" y="12" width="260" height="32" rx="6" fill="#ffffff" stroke="#e2e8f0"/>
      <circle cx="28" cy="28" r="4" fill="#f59e0b"/>
      <text x="40" y="32" font-family="Poppins, sans-serif" font-size="12" font-weight="700" fill="#0f172a">Proposal Sent</text>
      <rect x="236" y="18" width="26" height="20" rx="10" fill="#fef3c7"/>
      <text x="249" y="32" font-family="Poppins, sans-serif" font-size="11" font-weight="700" fill="#b45309" text-anchor="middle">5</text>

      <!-- Deal Card 1 -->
      <g transform="translate(14, 56)">
        <rect x="0" y="0" width="260" height="136" rx="8" fill="#ffffff" stroke="#e2e8f0" filter="url(#cardShadowC1)"/>
        <text x="14" y="22" font-family="Poppins, sans-serif" font-size="13" font-weight="700" fill="#0f172a">Enterprise Manufacturing Rollout</text>
        <text x="14" y="40" font-family="Poppins, sans-serif" font-size="11" fill="#64748b">Orion Robotics Corp.</text>
        <text x="14" y="70" font-family="Poppins, sans-serif" font-size="16" font-weight="800" fill="#0066cc">$125,000</text>
        <rect x="14" y="86" width="112" height="20" rx="10" fill="#ecfdf5"/>
        <text x="24" y="100" font-family="Poppins, sans-serif" font-size="10" font-weight="600" fill="#059669">Quote QTN-018</text>
        <circle cx="236" cy="116" r="10" fill="#dcfce7"/>
        <text x="236" y="120" font-family="Poppins, sans-serif" font-size="9" font-weight="700" fill="#15803d" text-anchor="middle">MR</text>
      </g>

      <!-- Deal Card 2 -->
      <g transform="translate(14, 204)">
        <rect x="0" y="0" width="260" height="136" rx="8" fill="#ffffff" stroke="#e2e8f0" filter="url(#cardShadowC1)"/>
        <text x="14" y="22" font-family="Poppins, sans-serif" font-size="13" font-weight="700" fill="#0f172a">Financial ERP Setup</text>
        <text x="14" y="40" font-family="Poppins, sans-serif" font-size="11" fill="#64748b">Summit Financial Group</text>
        <text x="14" y="70" font-family="Poppins, sans-serif" font-size="16" font-weight="800" fill="#0066cc">$64,000</text>
        <rect x="14" y="86" width="100" height="20" rx="10" fill="#eff6ff"/>
        <text x="24" y="100" font-family="Poppins, sans-serif" font-size="10" font-weight="600" fill="#0066cc">Under Review</text>
        <circle cx="236" cy="116" r="10" fill="#e0e7ff"/>
        <text x="236" y="120" font-family="Poppins, sans-serif" font-size="9" font-weight="700" fill="#4338ca" text-anchor="middle">AL</text>
      </g>
    </g>

    <!-- Column 3: Negotiation (3 Deals) -->
    <g transform="translate(616, 0)">
      <rect x="0" y="0" width="288" height="510" rx="10" fill="#f8fafc" stroke="#e2e8f0"/>
      <rect x="14" y="12" width="260" height="32" rx="6" fill="#ffffff" stroke="#e2e8f0"/>
      <circle cx="28" cy="28" r="4" fill="#8b5cf6"/>
      <text x="40" y="32" font-family="Poppins, sans-serif" font-size="12" font-weight="700" fill="#0f172a">Negotiation</text>
      <rect x="236" y="18" width="26" height="20" rx="10" fill="#ede9fe"/>
      <text x="249" y="32" font-family="Poppins, sans-serif" font-size="11" font-weight="700" fill="#7c3aed" text-anchor="middle">3</text>

      <!-- Deal Card 1 -->
      <g transform="translate(14, 56)">
        <rect x="0" y="0" width="260" height="136" rx="8" fill="#ffffff" stroke="#e2e8f0" filter="url(#cardShadowC1)"/>
        <text x="14" y="22" font-family="Poppins, sans-serif" font-size="13" font-weight="700" fill="#0f172a">Global Retail POS &amp; Inventory</text>
        <text x="14" y="40" font-family="Poppins, sans-serif" font-size="11" fill="#64748b">Cascade Retail Chains</text>
        <text x="14" y="70" font-family="Poppins, sans-serif" font-size="16" font-weight="800" fill="#0066cc">$192,000</text>
        <rect x="14" y="86" width="108" height="20" rx="10" fill="#ecfdf5"/>
        <text x="24" y="100" font-family="Poppins, sans-serif" font-size="10" font-weight="600" fill="#059669">90% Close Prob</text>
        <circle cx="236" cy="116" r="10" fill="#fae8ff"/>
        <text x="236" y="120" font-family="Poppins, sans-serif" font-size="9" font-weight="700" fill="#a21caf" text-anchor="middle">NP</text>
      </g>
    </g>

    <!-- Column 4: Won (12 Deals) -->
    <g transform="translate(924, 0)">
      <rect x="0" y="0" width="288" height="510" rx="10" fill="#f8fafc" stroke="#e2e8f0"/>
      <rect x="14" y="12" width="260" height="32" rx="6" fill="#ffffff" stroke="#e2e8f0"/>
      <circle cx="28" cy="28" r="4" fill="#10b981"/>
      <text x="40" y="32" font-family="Poppins, sans-serif" font-size="12" font-weight="700" fill="#0f172a">Won / Closed</text>
      <rect x="236" y="18" width="26" height="20" rx="10" fill="#d1fae5"/>
      <text x="249" y="32" font-family="Poppins, sans-serif" font-size="11" font-weight="700" fill="#059669" text-anchor="middle">12</text>

      <!-- Deal Card 1 -->
      <g transform="translate(14, 56)">
        <rect x="0" y="0" width="260" height="136" rx="8" fill="#ffffff" stroke="#e2e8f0" filter="url(#cardShadowC1)"/>
        <text x="14" y="22" font-family="Poppins, sans-serif" font-size="13" font-weight="700" fill="#0f172a">Cloud Core Enterprise Setup</text>
        <text x="14" y="40" font-family="Poppins, sans-serif" font-size="11" fill="#64748b">Nova Global Logistics</text>
        <text x="14" y="70" font-family="Poppins, sans-serif" font-size="16" font-weight="800" fill="#059669">$187,000</text>
        <rect x="14" y="86" width="92" height="20" rx="10" fill="#ecfdf5"/>
        <text x="24" y="100" font-family="Poppins, sans-serif" font-size="10" font-weight="600" fill="#059669">✓ Contracted</text>
        <circle cx="236" cy="116" r="10" fill="#dcfce7"/>
        <text x="236" y="120" font-family="Poppins, sans-serif" font-size="9" font-weight="700" fill="#15803d" text-anchor="middle">SJ</text>
      </g>
    </g>
  </g>
</svg>
